<svg width="12" height="11" viewBox="0 0 12 11" fill="none" xmlns="http://www.w3.org/2000/svg">
<path d="M5.49564 11.0032C5.09206 11.0032 4.72801 10.7606 4.57264 10.3882L2.91264 6.40316L1.89564 8.45016C1.64877 8.94446 1.04793 9.14503 0.553636 8.89816C0.0593416 8.65129 -0.141235 8.05046 0.105636 7.55616L2.10564 3.55616C2.2767 3.20489 2.63922 2.98792 3.02964 3.00316C3.42079 3.01653 3.76818 3.25686 3.91864 3.61816L5.30664 6.94816L7.03164 0.735164C7.1457 0.325089 7.50685 0.0321597 7.93164 0.00516421C8.35781 -0.0392397 8.76123 0.206245 8.91764 0.605164L11.9176 7.60516C12.0645 7.93459 12.0225 8.31755 11.8079 8.60739C11.5932 8.89723 11.2392 9.04903 10.8812 9.00466C10.5233 8.9603 10.217 8.72664 10.0796 8.39316L8.19564 4.01316L6.45964 10.2712C6.34557 10.6812 5.98442 10.9742 5.55964 11.0012C5.53664 11.0032 5.51664 11.0032 5.49564 11.0032Z" fill="#737D85"/>
</svg>
