<svg width="13" height="13" viewBox="0 0 13 13" fill="none" xmlns="http://www.w3.org/2000/svg">
<path opacity="0.64" fill-rule="evenodd" clip-rule="evenodd" d="M11.8663 0.146082C11.7517 0.0317432 11.5889 -0.0200532 11.4293 0.00708197C11.1683 0.051082 5.03631 1.10708 3.22931 2.92008C1.88725 4.26632 1.63292 6.35289 2.61231 7.98208L0.305313 10.2931C0.0453564 10.5442 -0.0588996 10.916 0.0326158 11.2656C0.124131 11.6152 0.397176 11.8883 0.746806 11.9798C1.09644 12.0713 1.46824 11.967 1.71931 11.7071L7.42631 6.00008L5.42631 9.92308C5.66776 9.97122 5.91313 9.997 6.15931 10.0001C7.25999 10.0029 8.31608 9.56543 9.09231 8.78508C10.9023 6.97608 11.9613 0.844082 12.0053 0.585082C12.0331 0.424851 11.9813 0.261102 11.8663 0.146082Z" fill="#9CA9B3"/>
</svg>
