<svg width="66" height="90" viewBox="0 0 66 90" fill="none" xmlns="http://www.w3.org/2000/svg">
<path d="M0.585324 4.37507C0.240182 4.60408 0.146046 5.06953 0.375065 5.41468L4.10715 11.0391C4.33617 11.3842 4.80162 11.4784 5.14676 11.2493C5.49191 11.0203 5.58604 10.5549 5.35702 10.2097L2.03961 5.21026L7.03909 1.89285C7.38423 1.66383 7.47837 1.19838 7.24935 0.853236C7.02033 0.508094 6.55488 0.413959 6.20974 0.642978L0.585324 4.37507ZM60 89C60.6828 89.3103 60.6831 89.3097 60.6835 89.3088C60.6838 89.3081 60.6843 89.307 60.6849 89.3057C60.686 89.3031 60.6876 89.2996 60.6897 89.295C60.6938 89.2859 60.6996 89.2728 60.7072 89.2558C60.7222 89.2218 60.7441 89.172 60.7721 89.1069C60.8282 88.9768 60.909 88.7855 61.0101 88.5365C61.2122 88.0385 61.4953 87.3096 61.8228 86.3775C62.4777 84.5139 63.3109 81.836 64.0294 78.5673C65.4653 72.0348 66.4492 63.1138 64.6114 53.6076C62.7711 44.0888 58.1036 33.9996 48.2669 25.1609C38.4382 16.3293 23.4908 8.78353 1.14868 4.26488L0.851325 5.73512C23.0092 10.2165 37.6868 17.6707 47.2643 26.2766C56.8339 34.8754 61.3539 44.6612 63.1386 53.8924C64.9258 63.1362 63.9722 71.8402 62.5644 78.2452C61.861 81.4453 61.0458 84.0642 60.4076 85.8803C60.0887 86.7881 59.8141 87.4947 59.6203 87.9723C59.5233 88.2111 59.4466 88.3926 59.3946 88.5133C59.3686 88.5737 59.3487 88.6189 59.3356 88.6484C59.3291 88.6632 59.3243 88.674 59.3212 88.6809C59.3196 88.6843 59.3185 88.6868 59.3178 88.6883C59.3175 88.689 59.3174 88.6893 59.3172 88.6897C59.3172 88.6898 59.3172 88.6897 60 89Z" fill="#5D5DFF"/>
</svg>
