<svg width="16" height="14" viewBox="0 0 16 14" fill="none" xmlns="http://www.w3.org/2000/svg">
<path fill-rule="evenodd" clip-rule="evenodd" d="M12 10C10.507 10 9.98798 9.467 9.15798 8.519L7.82898 10.038C8.91198 11.275 10.075 12 12 12V14L16 11L12 8V10Z" fill="#707D86"/>
<path fill-rule="evenodd" clip-rule="evenodd" d="M3.842 5.481L5.171 3.962C4.121 2.762 2.899 2 1.185 2H0V4H1.185C2.466 4 3.087 4.619 3.842 5.481Z" fill="#707D86"/>
<path fill-rule="evenodd" clip-rule="evenodd" d="M12 2C10.283 2 8.982 2.645 8.052 3.708L3.442 8.975C2.873 9.626 2.05 10 1.185 10H0V12H1.185C2.626 12 3.998 11.377 4.949 10.292L9.558 5.024C10.219 4.268 11.037 4 12 4V6L16 3L12 0V2Z" fill="#707D86"/>
</svg>
