<svg width="25" height="47" viewBox="0 0 25 47" fill="none" xmlns="http://www.w3.org/2000/svg">
<path d="M24.3828 2.51812C24.4702 2.11323 24.2128 1.71415 23.8079 1.62675L17.2099 0.202482C16.805 0.115082 16.4059 0.372456 16.3185 0.777344C16.2311 1.18223 16.4885 1.58131 16.8934 1.66871L22.7583 2.93473L21.4923 8.79964C21.4049 9.20453 21.6623 9.6036 22.0671 9.691C22.472 9.7784 22.8711 9.52103 22.9585 9.11614L24.3828 2.51812ZM1.35041 46.6401C2.0977 46.5764 2.09772 46.5766 2.09773 46.5768C2.09772 46.5766 2.09772 46.5767 2.0977 46.5764C2.09767 46.576 2.0976 46.5752 2.09749 46.5739C2.09729 46.5714 2.09694 46.5671 2.09648 46.5612C2.09556 46.5493 2.09415 46.5307 2.09237 46.5056C2.08881 46.4552 2.08378 46.3785 2.07816 46.2767C2.06692 46.073 2.05335 45.7691 2.04463 45.3747C2.02719 44.5859 2.02915 43.4359 2.10778 42.0041C2.26509 39.1393 2.72896 35.1528 3.95471 30.6757C6.40525 21.7249 11.8928 10.8346 24.0561 2.99015L23.2432 1.72957C10.69 9.8254 5.02789 21.0753 2.50795 30.2796C1.24846 34.88 0.771864 38.9748 0.610032 41.9218C0.529084 43.3959 0.526796 44.5846 0.545001 45.4079C0.554104 45.8195 0.568336 46.14 0.580439 46.3593C0.586487 46.469 0.59201 46.5533 0.596094 46.6112C0.598133 46.6401 0.599816 46.6624 0.601024 46.6779C0.601632 46.6856 0.602118 46.6917 0.602472 46.696C0.60265 46.6982 0.602793 46.6999 0.602903 46.7013C0.602959 46.7019 0.603014 46.7026 0.603041 46.7029C0.603087 46.7034 0.603126 46.7039 1.35041 46.6401Z" fill="#5D5DFF"/>
</svg>
