<svg width="12" height="12" viewBox="0 0 12 12" fill="none" xmlns="http://www.w3.org/2000/svg">
<path opacity="0.64" fill-rule="evenodd" clip-rule="evenodd" d="M4 12C3.44772 12 3 11.5523 3 11C3 9.89543 2.10457 9 1 9C0.447715 9 0 8.55228 0 8C0 7.44772 0.447715 7 1 7C2.10457 7 3 6.10457 3 5C3 4.44772 3.44772 4 4 4C4.55228 4 5 4.44772 5 5C5 6.10457 5.89543 7 7 7C7.55228 7 8 7.44772 8 8C8 8.55228 7.55228 9 7 9C5.89543 9 5 9.89543 5 11C5 11.5523 4.55228 12 4 12Z" fill="#9CA9B3"/>
<path opacity="0.64" fill-rule="evenodd" clip-rule="evenodd" d="M9.5 5C9.15482 5 8.875 4.72018 8.875 4.375C8.8739 3.6851 8.3149 3.1261 7.625 3.125C7.27982 3.125 7 2.84518 7 2.5C7 2.15482 7.27982 1.875 7.625 1.875C8.3149 1.8739 8.8739 1.3149 8.875 0.625C8.875 0.279822 9.15482 0 9.5 0C9.84518 0 10.125 0.279822 10.125 0.625C10.1261 1.3149 10.6851 1.8739 11.375 1.875C11.7202 1.875 12 2.15482 12 2.5C12 2.84518 11.7202 3.125 11.375 3.125C10.6851 3.1261 10.1261 3.6851 10.125 4.375C10.125 4.54076 10.0592 4.69973 9.94194 4.81694C9.82473 4.93415 9.66576 5 9.5 5Z" fill="#9CA9B3"/>
</svg>
